<svg width="512" height="512" viewBox="0 0 512 512" fill="none" xmlns="http://www.w3.org/2000/svg">
  <rect width="512" height="512" rx="128" fill="#060914"/>

  <rect x="36" y="36" width="440" height="440" rx="112" fill="url(#panelDark)"/>
  <rect x="36" y="36" width="440" height="440" rx="112" stroke="url(#borderDark)" stroke-width="10"/>

  <path
    d="M155 126V316C155 357 181 383 222 383H356"
    stroke="#F8FAFC"
    stroke-width="64"
    stroke-linecap="round"
    stroke-linejoin="round"
  />

  <path
    d="M338 202C318 184 279 188 264 212C250 236 271 249 304 255C338 261 356 277 347 303C337 332 292 336 266 309"
    stroke="#22C55E"
    stroke-width="25"
    stroke-linecap="round"
    stroke-linejoin="round"
  />

  <path
    d="M326 118L382 90L438 118L382 146L326 118Z"
    fill="#22C55E"
  />

  <path
    d="M356 143H408"
    stroke="#22C55E"
    stroke-width="13"
    stroke-linecap="round"
  />

  <path
    d="M438 118V150"
    stroke="#22C55E"
    stroke-width="8"
    stroke-linecap="round"
  />

  <circle cx="438" cy="158" r="7" fill="#22C55E"/>

  <defs>
    <linearGradient id="panelDark" x1="64" y1="64" x2="448" y2="448" gradientUnits="userSpaceOnUse">
      <stop stop-color="#111827"/>
      <stop offset="0.52" stop-color="#0F172A"/>
      <stop offset="1" stop-color="#07111F"/>
    </linearGradient>

    <linearGradient id="borderDark" x1="52" y1="52" x2="460" y2="460" gradientUnits="userSpaceOnUse">
      <stop stop-color="#7C3AED"/>
      <stop offset="0.52" stop-color="#2563EB"/>
      <stop offset="1" stop-color="#0891B2"/>
    </linearGradient>
  </defs>
</svg>
